<svg width="47" height="38" viewBox="0 0 47 38" fill="none" xmlns="http://www.w3.org/2000/svg">
    <line x1="24" y1="6" x2="24" y2="24" stroke="#CCCCCC" stroke-width="2"/>
    <line x1="33.0114" y1="14.9999" x2="14.0129" y2="15.2354" stroke="#CCCCCC" stroke-width="2"/>
    <path d="M0.255682 37.7614V35.2188H0.724432C0.885417 35.072 1.03693 34.8648 1.17898 34.5973C1.32339 34.3274 1.44531 33.9676 1.54474 33.5178C1.64654 33.0656 1.71402 32.4915 1.74716 31.7955L1.90341 28.7273H6.22159V35.2188H7.05966V37.7472H6.22159V36H1.09375V37.7614H0.255682ZM1.77557 35.2188H5.38352V29.5085H2.69886L2.58523 31.7955C2.55682 32.3258 2.5071 32.8063 2.43608 33.2372C2.36506 33.6657 2.27391 34.0457 2.16264 34.3771C2.05137 34.7062 1.92235 34.9867 1.77557 35.2188ZM10.4927 36.1136C10.0003 36.1136 9.56824 35.9964 9.19656 35.7621C8.82724 35.5277 8.53841 35.1998 8.33008 34.7784C8.12411 34.357 8.02113 33.8646 8.02113 33.3011C8.02113 32.733 8.12411 32.237 8.33008 31.8132C8.53841 31.3894 8.82724 31.0604 9.19656 30.826C9.56824 30.5916 10.0003 30.4744 10.4927 30.4744C10.9851 30.4744 11.416 30.5916 11.7853 30.826C12.157 31.0604 12.4458 31.3894 12.6518 31.8132C12.8601 32.237 12.9643 32.733 12.9643 33.3011C12.9643 33.8646 12.8601 34.357 12.6518 34.7784C12.4458 35.1998 12.157 35.5277 11.7853 35.7621C11.416 35.9964 10.9851 36.1136 10.4927 36.1136ZM10.4927 35.3608C10.8668 35.3608 11.1745 35.2649 11.416 35.0732C11.6575 34.8814 11.8362 34.6293 11.9522 34.3168C12.0682 34.0043 12.1262 33.6657 12.1262 33.3011C12.1262 32.9366 12.0682 32.5968 11.9522 32.282C11.8362 31.9671 11.6575 31.7126 11.416 31.5185C11.1745 31.3243 10.8668 31.2273 10.4927 31.2273C10.1187 31.2273 9.8109 31.3243 9.56942 31.5185C9.32795 31.7126 9.14921 31.9671 9.0332 32.282C8.9172 32.5968 8.8592 32.9366 8.8592 33.3011C8.8592 33.6657 8.9172 34.0043 9.0332 34.3168C9.14921 34.6293 9.32795 34.8814 9.56942 35.0732C9.8109 35.2649 10.1187 35.3608 10.4927 35.3608ZM18.2919 28.5L18.718 29.0114C18.5523 29.1723 18.3606 29.2848 18.1428 29.3487C17.925 29.4126 17.6787 29.4517 17.4041 29.4659C17.1295 29.4801 16.8241 29.4943 16.4879 29.5085C16.1091 29.5227 15.7955 29.6151 15.5469 29.7855C15.2983 29.956 15.1065 30.2022 14.9716 30.5241C14.8366 30.8461 14.7502 31.2415 14.7124 31.7102H14.7834C14.968 31.3693 15.2237 31.1184 15.5504 30.9574C15.8771 30.7964 16.2275 30.7159 16.6016 30.7159C17.0277 30.7159 17.4112 30.8153 17.7521 31.0142C18.093 31.2131 18.3629 31.5078 18.5618 31.8984C18.7607 32.2891 18.8601 32.7708 18.8601 33.3438C18.8601 33.9143 18.7583 34.4067 18.5547 34.821C18.3535 35.2353 18.0705 35.5549 17.706 35.7798C17.3438 36.0024 16.9188 36.1136 16.4311 36.1136C15.9434 36.1136 15.5161 35.9988 15.1491 35.7692C14.7822 35.5372 14.4969 35.1939 14.2933 34.7393C14.0897 34.2824 13.9879 33.7178 13.9879 33.0455V32.4631C13.9879 31.2486 14.1939 30.3277 14.6058 29.7003C15.0201 29.0729 15.6428 28.7486 16.4737 28.7273C16.7673 28.7178 17.0289 28.7154 17.2585 28.7202C17.4882 28.7249 17.6882 28.7143 17.8587 28.6882C18.0291 28.6622 18.1735 28.5994 18.2919 28.5ZM16.4311 35.3608C16.7602 35.3608 17.0431 35.2779 17.2798 35.1122C17.5189 34.9465 17.7024 34.7133 17.8303 34.4126C17.9581 34.1096 18.022 33.7533 18.022 33.3438C18.022 32.946 17.9569 32.6075 17.8267 32.3281C17.6989 32.0488 17.5154 31.8357 17.2763 31.6889C17.0372 31.5421 16.7507 31.4688 16.4169 31.4688C16.1731 31.4688 15.9541 31.5102 15.7599 31.593C15.5658 31.6759 15.4001 31.7978 15.2628 31.9588C15.1255 32.1198 15.0189 32.3163 14.9432 32.5483C14.8698 32.7803 14.8307 33.0455 14.826 33.3438C14.826 33.9545 14.9692 34.4434 15.2557 34.8104C15.5421 35.1773 15.9339 35.3608 16.4311 35.3608ZM21.7472 36.1278C21.4015 36.1278 21.0878 36.0627 20.8061 35.9325C20.5244 35.8 20.3007 35.6094 20.1349 35.3608C19.9692 35.1098 19.8864 34.8068 19.8864 34.4517C19.8864 34.1392 19.9479 33.8859 20.071 33.6918C20.1941 33.4953 20.3587 33.3414 20.5646 33.2301C20.7706 33.1188 20.9979 33.036 21.2464 32.9815C21.4974 32.9247 21.7495 32.8797 22.0028 32.8466C22.3343 32.804 22.603 32.772 22.8089 32.7507C23.0173 32.727 23.1688 32.688 23.2635 32.6335C23.3606 32.5791 23.4091 32.4844 23.4091 32.3494V32.321C23.4091 31.9706 23.3132 31.6984 23.1214 31.5043C22.9321 31.3101 22.6444 31.2131 22.2585 31.2131C21.8584 31.2131 21.5447 31.3007 21.3175 31.4759C21.0902 31.651 20.9304 31.8381 20.8381 32.0369L20.0426 31.7528C20.1847 31.4214 20.3741 31.1634 20.6108 30.9787C20.8499 30.7917 21.1103 30.6615 21.392 30.5881C21.6761 30.5123 21.9555 30.4744 22.2301 30.4744C22.4053 30.4744 22.6065 30.4957 22.8338 30.5384C23.0634 30.5786 23.2848 30.6626 23.4979 30.7905C23.7133 30.9183 23.892 31.1113 24.0341 31.3693C24.1761 31.6274 24.2472 31.973 24.2472 32.4062V36H23.4091V35.2614H23.3665C23.3097 35.3797 23.215 35.5064 23.0824 35.6413C22.9498 35.7763 22.7734 35.8911 22.5533 35.9858C22.3331 36.0805 22.0644 36.1278 21.7472 36.1278ZM21.875 35.375C22.2064 35.375 22.4858 35.3099 22.7131 35.1797C22.9427 35.0495 23.1155 34.8814 23.2315 34.6754C23.3499 34.4695 23.4091 34.2528 23.4091 34.0256V33.2585C23.3736 33.3011 23.2955 33.3402 23.1747 33.3757C23.0563 33.4089 22.919 33.4384 22.7628 33.4645C22.6089 33.4882 22.4586 33.5095 22.3118 33.5284C22.1674 33.545 22.0502 33.5592 21.9602 33.571C21.7424 33.5994 21.5388 33.6456 21.3494 33.7095C21.1624 33.7711 21.0109 33.8646 20.8949 33.9901C20.7813 34.1132 20.7244 34.2812 20.7244 34.4943C20.7244 34.7855 20.8321 35.0057 21.0476 35.1548C21.2654 35.3016 21.5412 35.375 21.875 35.375ZM25.7768 36V30.5455H28.0069C28.594 30.5455 29.0604 30.678 29.4061 30.9432C29.7517 31.2083 29.9245 31.5587 29.9245 31.9943C29.9245 32.3258 29.8263 32.5826 29.6298 32.7649C29.4333 32.9448 29.1812 33.0668 28.8734 33.1307C29.0746 33.1591 29.2699 33.2301 29.4593 33.3438C29.6511 33.4574 29.8097 33.6136 29.9352 33.8125C30.0607 34.009 30.1234 34.2505 30.1234 34.5369C30.1234 34.8163 30.0524 35.0661 29.9103 35.2862C29.7683 35.5064 29.5647 35.6804 29.2995 35.8082C29.0344 35.9361 28.7172 36 28.3478 36H25.7768ZM26.5723 35.233H28.3478C28.6367 35.233 28.8627 35.1643 29.0261 35.027C29.1895 34.8897 29.2711 34.7027 29.2711 34.4659C29.2711 34.1842 29.1895 33.9628 29.0261 33.8018C28.8627 33.6385 28.6367 33.5568 28.3478 33.5568H26.5723V35.233ZM26.5723 32.8324H28.0069C28.2318 32.8324 28.4248 32.8016 28.5858 32.7401C28.7467 32.6761 28.8699 32.5862 28.9551 32.4702C29.0427 32.3518 29.0865 32.2121 29.0865 32.0511C29.0865 31.8215 28.9906 31.6416 28.7988 31.5114C28.6071 31.3788 28.3431 31.3125 28.0069 31.3125H26.5723V32.8324ZM32.2301 34.7642L34.858 30.5455H35.8239V36H34.9858V31.7812L32.3722 36H31.392V30.5455H32.2301V34.7642ZM36.6167 31.3267V30.5455H41.0485V31.3267H39.2587V36H38.4206V31.3267H36.6167ZM42.9954 32.5199H44.5579C45.1971 32.5199 45.686 32.6821 46.0245 33.0064C46.363 33.3307 46.5323 33.7415 46.5323 34.2386C46.5323 34.5653 46.4566 34.8625 46.305 35.13C46.1535 35.3951 45.931 35.607 45.6374 35.7656C45.3439 35.9219 44.984 36 44.5579 36H42.271V30.5455H43.109V35.2188H44.5579C44.8893 35.2188 45.1616 35.1312 45.3746 34.956C45.5877 34.7808 45.6942 34.5559 45.6942 34.2812C45.6942 33.9924 45.5877 33.7569 45.3746 33.5746C45.1616 33.3923 44.8893 33.3011 44.5579 33.3011H42.9954V32.5199Z" fill="#CCCCCC"/>
</svg>
