<svg width="36" height="38" viewBox="0 0 36 38" fill="none" xmlns="http://www.w3.org/2000/svg">
    <path d="M13.9375 21.9375C14.3862 21.9375 14.75 21.5737 14.75 21.125C14.75 20.6763 14.3862 20.3125 13.9375 20.3125C13.4888 20.3125 13.125 20.6763 13.125 21.125C13.125 21.5737 13.4888 21.9375 13.9375 21.9375Z" fill="#CCCCCC" stroke="#CCCCCC" stroke-width="1.39286" stroke-linecap="round" stroke-linejoin="round"/>
    <path d="M25.3125 21.9375C25.7612 21.9375 26.125 21.5737 26.125 21.125C26.125 20.6763 25.7612 20.3125 25.3125 20.3125C24.8638 20.3125 24.5 20.6763 24.5 21.125C24.5 21.5737 24.8638 21.9375 25.3125 21.9375Z" fill="#CCCCCC" stroke="#CCCCCC" stroke-width="1.39286" stroke-linecap="round" stroke-linejoin="round"/>
    <path d="M7.4375 4.0625H10.6875L13.125 17.875H26.125" stroke="#CCCCCC" stroke-width="2.32143" stroke-linecap="round" stroke-linejoin="round"/>
    <path d="M13.125 14.625H25.7919C25.8858 14.6251 25.9769 14.5926 26.0496 14.533C26.1223 14.4735 26.1721 14.3906 26.1905 14.2985L27.653 6.98598C27.6648 6.92701 27.6634 6.86616 27.6488 6.80782C27.6342 6.74948 27.6069 6.6951 27.5688 6.6486C27.5306 6.60211 27.4826 6.56466 27.4283 6.53896C27.3739 6.51327 27.3145 6.49996 27.2544 6.5H11.5" stroke="#CCCCCC" stroke-width="2.32143" stroke-linecap="round" stroke-linejoin="round"/>
    <path d="M3.21023 36.0994C2.74148 36.0994 2.32363 36.0189 1.95668 35.858C1.59209 35.697 1.30208 35.4732 1.08665 35.1868C0.87358 34.898 0.757576 34.563 0.738636 34.1818H1.63352C1.65246 34.4162 1.73295 34.6186 1.875 34.7891C2.01705 34.9571 2.20289 35.0874 2.43253 35.1797C2.66217 35.272 2.91667 35.3182 3.19602 35.3182C3.50852 35.3182 3.78551 35.2637 4.02699 35.1548C4.26847 35.0459 4.45786 34.8944 4.59517 34.7003C4.73248 34.5062 4.80114 34.2812 4.80114 34.0256C4.80114 33.758 4.73485 33.5225 4.60227 33.3189C4.4697 33.1129 4.27557 32.9519 4.01989 32.8359C3.7642 32.7199 3.4517 32.6619 3.08239 32.6619H2.5V31.8807H3.08239C3.37121 31.8807 3.62453 31.8286 3.84233 31.7244C4.0625 31.6203 4.23414 31.4735 4.35724 31.2841C4.48272 31.0947 4.54545 30.8722 4.54545 30.6165C4.54545 30.3703 4.491 30.156 4.3821 29.9737C4.2732 29.7914 4.11932 29.6494 3.92045 29.5476C3.72396 29.4458 3.49195 29.3949 3.22443 29.3949C2.97348 29.3949 2.73674 29.4411 2.5142 29.5334C2.29403 29.6233 2.11411 29.7547 1.97443 29.9276C1.83475 30.098 1.759 30.304 1.74716 30.5455H0.894886C0.909091 30.1643 1.02391 29.8305 1.23935 29.544C1.45478 29.2552 1.73651 29.0303 2.08452 28.8693C2.4349 28.7083 2.8196 28.6278 3.23864 28.6278C3.68845 28.6278 4.07434 28.719 4.39631 28.9013C4.71828 29.0812 4.96567 29.3191 5.13849 29.6151C5.31132 29.911 5.39773 30.2306 5.39773 30.5739C5.39773 30.9834 5.29001 31.3326 5.07457 31.6214C4.86151 31.9103 4.5715 32.1103 4.20455 32.2216V32.2784C4.66383 32.3542 5.02249 32.5495 5.28054 32.8643C5.53859 33.1768 5.66761 33.5639 5.66761 34.0256C5.66761 34.4209 5.5599 34.776 5.34446 35.0909C5.13139 35.4034 4.8402 35.6496 4.47088 35.8295C4.10156 36.0095 3.68134 36.0994 3.21023 36.0994ZM8.73935 36.1278C8.3937 36.1278 8.08002 36.0627 7.7983 35.9325C7.51657 35.8 7.29285 35.6094 7.12713 35.3608C6.96141 35.1098 6.87855 34.8068 6.87855 34.4517C6.87855 34.1392 6.9401 33.8859 7.06321 33.6918C7.18632 33.4953 7.35085 33.3414 7.55682 33.2301C7.76278 33.1188 7.99006 33.036 8.23864 32.9815C8.48958 32.9247 8.74171 32.8797 8.99503 32.8466C9.32647 32.804 9.59517 32.772 9.80114 32.7507C10.0095 32.727 10.161 32.688 10.2557 32.6335C10.3527 32.5791 10.4013 32.4844 10.4013 32.3494V32.321C10.4013 31.9706 10.3054 31.6984 10.1136 31.5043C9.92424 31.3101 9.6366 31.2131 9.25071 31.2131C8.85062 31.2131 8.53693 31.3007 8.30966 31.4759C8.08239 31.651 7.92259 31.8381 7.83026 32.0369L7.0348 31.7528C7.17685 31.4214 7.36624 31.1634 7.60298 30.9787C7.84209 30.7917 8.10251 30.6615 8.38423 30.5881C8.66832 30.5123 8.94768 30.4744 9.2223 30.4744C9.39749 30.4744 9.59872 30.4957 9.82599 30.5384C10.0556 30.5786 10.277 30.6626 10.4901 30.7905C10.7055 30.9183 10.8842 31.1113 11.0263 31.3693C11.1683 31.6274 11.2393 31.973 11.2393 32.4062V36H10.4013V35.2614H10.3587C10.3018 35.3797 10.2071 35.5064 10.0746 35.6413C9.942 35.7763 9.76563 35.8911 9.54545 35.9858C9.32528 36.0805 9.05658 36.1278 8.73935 36.1278ZM8.86719 35.375C9.19863 35.375 9.47798 35.3099 9.70526 35.1797C9.9349 35.0495 10.1077 34.8814 10.2237 34.6754C10.3421 34.4695 10.4013 34.2528 10.4013 34.0256V33.2585C10.3658 33.3011 10.2876 33.3402 10.1669 33.3757C10.0485 33.4089 9.91122 33.4384 9.75497 33.4645C9.60109 33.4882 9.45076 33.5095 9.30398 33.5284C9.15956 33.545 9.04238 33.5592 8.95241 33.571C8.73461 33.5994 8.53101 33.6456 8.34162 33.7095C8.15459 33.7711 8.00308 33.8646 7.88707 33.9901C7.77344 34.1132 7.71662 34.2812 7.71662 34.4943C7.71662 34.7855 7.82434 35.0057 8.03977 35.1548C8.25758 35.3016 8.53338 35.375 8.86719 35.375ZM12.769 36V30.5455H13.6071V32.9176H14.161L16.1213 30.5455H17.2008L14.9991 33.1733L17.2292 36H16.1497L14.3599 33.6989H13.6071V36H12.769ZM19.7452 36.1278C19.3996 36.1278 19.0859 36.0627 18.8042 35.9325C18.5224 35.8 18.2987 35.6094 18.133 35.3608C17.9673 35.1098 17.8844 34.8068 17.8844 34.4517C17.8844 34.1392 17.946 33.8859 18.0691 33.6918C18.1922 33.4953 18.3567 33.3414 18.5627 33.2301C18.7686 33.1188 18.9959 33.036 19.2445 32.9815C19.4954 32.9247 19.7476 32.8797 20.0009 32.8466C20.3323 32.804 20.601 32.772 20.807 32.7507C21.0153 32.727 21.1668 32.688 21.2615 32.6335C21.3586 32.5791 21.4071 32.4844 21.4071 32.3494V32.321C21.4071 31.9706 21.3113 31.6984 21.1195 31.5043C20.9301 31.3101 20.6425 31.2131 20.2566 31.2131C19.8565 31.2131 19.5428 31.3007 19.3155 31.4759C19.0882 31.651 18.9284 31.8381 18.8361 32.0369L18.0407 31.7528C18.1827 31.4214 18.3721 31.1634 18.6088 30.9787C18.848 30.7917 19.1084 30.6615 19.3901 30.5881C19.6742 30.5123 19.9535 30.4744 20.2282 30.4744C20.4033 30.4744 20.6046 30.4957 20.8319 30.5384C21.0615 30.5786 21.2828 30.6626 21.4959 30.7905C21.7114 30.9183 21.8901 31.1113 22.0321 31.3693C22.1742 31.6274 22.2452 31.973 22.2452 32.4062V36H21.4071V35.2614H21.3645C21.3077 35.3797 21.213 35.5064 21.0804 35.6413C20.9479 35.7763 20.7715 35.8911 20.5513 35.9858C20.3311 36.0805 20.0624 36.1278 19.7452 36.1278ZM19.873 35.375C20.2045 35.375 20.4838 35.3099 20.7111 35.1797C20.9408 35.0495 21.1136 34.8814 21.2296 34.6754C21.348 34.4695 21.4071 34.2528 21.4071 34.0256V33.2585C21.3716 33.3011 21.2935 33.3402 21.1728 33.3757C21.0544 33.4089 20.9171 33.4384 20.7608 33.4645C20.6069 33.4882 20.4566 33.5095 20.3098 33.5284C20.1654 33.545 20.0482 33.5592 19.9583 33.571C19.7405 33.5994 19.5369 33.6456 19.3475 33.7095C19.1605 33.7711 19.0089 33.8646 18.8929 33.9901C18.7793 34.1132 18.7225 34.2812 18.7225 34.4943C18.7225 34.7855 18.8302 35.0057 19.0456 35.1548C19.2634 35.3016 19.5392 35.375 19.873 35.375ZM23.4339 34.608H24.3288C24.3478 34.8542 24.459 35.0412 24.6626 35.169C24.8686 35.2969 25.1361 35.3608 25.4652 35.3608C25.8014 35.3608 26.089 35.2921 26.3281 35.1548C26.5672 35.0152 26.6868 34.7902 26.6868 34.4801C26.6868 34.2978 26.6418 34.1392 26.5518 34.0043C26.4619 33.867 26.3352 33.7604 26.1719 33.6847C26.0085 33.6089 25.8156 33.571 25.593 33.571H24.6555V32.8182H25.593C25.9268 32.8182 26.1731 32.7424 26.3317 32.5909C26.4927 32.4394 26.5732 32.25 26.5732 32.0227C26.5732 31.7789 26.4867 31.5836 26.3139 31.4368C26.1411 31.2876 25.8961 31.2131 25.5788 31.2131C25.2592 31.2131 24.9929 31.2853 24.7798 31.4297C24.5668 31.5717 24.4543 31.7552 24.4425 31.9801H23.5618C23.5713 31.6866 23.6612 31.4273 23.8317 31.2024C24.0021 30.9751 24.2341 30.7976 24.5277 30.6697C24.8213 30.5395 25.1574 30.4744 25.5362 30.4744C25.9197 30.4744 26.2524 30.5419 26.5341 30.6768C26.8182 30.8094 27.0372 30.9905 27.1911 31.2202C27.3473 31.4474 27.4254 31.7055 27.4254 31.9943C27.4254 32.3021 27.339 32.5507 27.1662 32.7401C26.9934 32.9295 26.7768 33.0644 26.5163 33.1449V33.2017C26.7223 33.2159 26.901 33.2822 27.0526 33.4006C27.2064 33.5166 27.326 33.6693 27.4112 33.8587C27.4964 34.0457 27.5391 34.2528 27.5391 34.4801C27.5391 34.8116 27.4503 35.1004 27.2727 35.3466C27.0952 35.5904 26.8513 35.7798 26.5412 35.9148C26.2311 36.0473 25.8771 36.1136 25.4794 36.1136C25.0935 36.1136 24.7479 36.0509 24.4425 35.9254C24.1371 35.7976 23.8944 35.6212 23.7145 35.3963C23.5369 35.169 23.4434 34.9062 23.4339 34.608ZM29.4407 32.5199H31.0032C31.6424 32.5199 32.1313 32.6821 32.4698 33.0064C32.8084 33.3307 32.9776 33.7415 32.9776 34.2386C32.9776 34.5653 32.9019 34.8625 32.7504 35.13C32.5988 35.3951 32.3763 35.607 32.0827 35.7656C31.7892 35.9219 31.4293 36 31.0032 36H28.7163V30.5455H29.5543V35.2188H31.0032C31.3346 35.2188 31.6069 35.1312 31.82 34.956C32.033 34.7808 32.1396 34.5559 32.1396 34.2812C32.1396 33.9924 32.033 33.7569 31.82 33.5746C31.6069 33.3923 31.3346 33.3011 31.0032 33.3011H29.4407V32.5199ZM33.8441 36V30.5455H34.6822V36H33.8441Z" fill="#CCCCCC"/>
</svg>
